# xmcd CD database file
#
# Track frame offsets:
#	150
#	26892
#	50024
#	65894
#	86887
#	111420
#	131857
#	179816
#	204315
#	231098
#	269663
#	294911
#	316185
#
# Disc length: 4439 seconds
#
# Revision: 0
# Processed by: cddbd v1.5.1PL0 Copyright (c) Steve Scherf et al.
# Submitted via: CDex 1.51
#
DISCID=d411550d
DTITLE=Various Artist - Love Ballads Latenight Jazz
DYEAR=1999
DGENRE=Jazz
TTITLE0=Jim Hall - Sazanami
TTITLE1=Dave Brubeck - Lullaby
TTITLE2=Mel Torme - A Lovely Way To Spend An Evening
TTITLE3=Gerry Mulligan Quartet - My Funny Valentine
TTITLE4=Jeanie Bryson - Some Cats Know
TTITLE5=Jacques Loussier Trio - Gymnopedie No. 1q Variation 1
TTITLE6=Oscar Peterson - Love Ballade
TTITLE7=Jeremy Davenport - I Thought About You
TTITLE8=Andre Previn - Laura
TTITLE9=Lonel Hampton And The Golden Men Of Jazz - God Bless The Child
TTITLE10=Ray Brown Trio with Nancy King and Antonio Hart - But Beautiful
TTITLE11=George Shearing Quintet - How Beautiful Is Night
TTITLE12=Joe Williams and George Shearing - Here´s To Live
EXTD=YEAR: 1999
EXTT0=
EXTT1=
EXTT2=
EXTT3=
EXTT4=
EXTT5=
EXTT6=
EXTT7=
EXTT8=
EXTT9=
EXTT10=
EXTT11=
EXTT12=
PLAYORDER=
